<?xml version="1.0" encoding="UTF-8" standalone="no"?>
<!-- Generator: Adobe Illustrator 16.0.0, SVG Export Plug-In . SVG Version: 6.00 Build 0)  -->

<svg
   xmlns:dc="http://purl.org/dc/elements/1.1/"
   xmlns:cc="http://creativecommons.org/ns#"
   xmlns:rdf="http://www.w3.org/1999/02/22-rdf-syntax-ns#"
   xmlns:svg="http://www.w3.org/2000/svg"
   xmlns="http://www.w3.org/2000/svg"
   xmlns:sodipodi="http://sodipodi.sourceforge.net/DTD/sodipodi-0.dtd"
   xmlns:inkscape="http://www.inkscape.org/namespaces/inkscape"
   version="1.1"
   id="Layer_1"
   x="0px"
   y="0px"
   width="64px"
   height="64px"
   viewBox="0 0 64 64"
   enable-background="new 0 0 64 64"
   xml:space="preserve"
   inkscape:version="0.48.4 r9939"
   sodipodi:docname="bell.svg"><metadata
     id="metadata17"><rdf:RDF><cc:Work
         rdf:about=""><dc:format>image/svg+xml</dc:format><dc:type
           rdf:resource="http://purl.org/dc/dcmitype/StillImage" /></cc:Work></rdf:RDF></metadata><defs
     id="defs15" /><sodipodi:namedview
     pagecolor="#ffffff"
     bordercolor="#666666"
     borderopacity="1"
     objecttolerance="10"
     gridtolerance="10"
     guidetolerance="10"
     inkscape:pageopacity="0"
     inkscape:pageshadow="2"
     inkscape:window-width="1920"
     inkscape:window-height="1025"
     id="namedview13"
     showgrid="false"
     inkscape:zoom="3.6875"
     inkscape:cx="32"
     inkscape:cy="32"
     inkscape:window-x="0"
     inkscape:window-y="30"
     inkscape:window-maximized="1"
     inkscape:current-layer="Layer_1" /><path
     style="font-size:medium;font-style:normal;font-variant:normal;font-weight:normal;font-stretch:normal;text-indent:0;text-align:start;text-decoration:none;line-height:normal;letter-spacing:normal;word-spacing:normal;text-transform:none;direction:ltr;block-progression:tb;writing-mode:lr-tb;text-anchor:start;baseline-shift:baseline;color:#000000;fill:#000000;fill-opacity:1;stroke:none;stroke-width:2;marker:none;visibility:visible;display:inline;overflow:visible;enable-background:accumulate;font-family:Sans;-inkscape-font-specification:Sans"
     d="M 27 0 L 27 1 L 27 6.6875 C 18.942905 8.8890817 13 16.251549 13 25 L 13 43.5625 L 6.28125 50.28125 L 6 50.59375 L 6 51 L 6 55 L 6 56 L 7 56 L 22.0625 56 C 22.568812 60.483743 26.384314 64 31 64 C 35.615686 64 39.431188 60.483743 39.9375 56 L 57 56 L 58 56 L 58 55 L 58 51 L 58 50.59375 L 57.71875 50.28125 L 51 43.5625 L 51 25 C 51 16.251549 45.057095 8.8890817 37 6.6875 L 37 1 L 37 0 L 36 0 L 28 0 L 27 0 z M 29 2 L 35 2 L 35 6.25 C 34.01763 6.0928564 33.026149 6 32 6 C 30.973851 6 29.98237 6.0928564 29 6.25 L 29 2 z M 32 8 C 41.400545 8 49 15.599455 49 25 L 49 34 L 15 34 L 15 25 C 15 15.599455 22.599455 8 32 8 z M 15 36 L 49 36 L 49 40 L 15 40 L 15 36 z M 15 42 L 49 42 L 49 44 L 49 44.40625 L 49.28125 44.71875 L 56 51.4375 L 56 54 L 32 54 L 8 54 L 8 51.4375 L 14.71875 44.71875 L 15 44.40625 L 15 44 L 15 42 z M 24.09375 56 L 32 56 L 37.90625 56 C 37.420574 59.396992 34.535296 62 31 62 C 27.464704 62 24.579426 59.396992 24.09375 56 z "
     id="path3" /></svg>