<?xml version="1.0" encoding="UTF-8" standalone="no"?>
<!-- Generator: Adobe Illustrator 16.0.0, SVG Export Plug-In . SVG Version: 6.00 Build 0)  -->

<svg
   xmlns:dc="http://purl.org/dc/elements/1.1/"
   xmlns:cc="http://creativecommons.org/ns#"
   xmlns:rdf="http://www.w3.org/1999/02/22-rdf-syntax-ns#"
   xmlns:svg="http://www.w3.org/2000/svg"
   xmlns="http://www.w3.org/2000/svg"
   xmlns:sodipodi="http://sodipodi.sourceforge.net/DTD/sodipodi-0.dtd"
   xmlns:inkscape="http://www.inkscape.org/namespaces/inkscape"
   version="1.1"
   id="Layer_1"
   x="0px"
   y="0px"
   width="64px"
   height="64px"
   viewBox="0 0 64 64"
   enable-background="new 0 0 64 64"
   xml:space="preserve"
   inkscape:version="0.48.4 r9939"
   sodipodi:docname="fastforward-button.svg"><metadata
     id="metadata15"><rdf:RDF><cc:Work
         rdf:about=""><dc:format>image/svg+xml</dc:format><dc:type
           rdf:resource="http://purl.org/dc/dcmitype/StillImage" /></cc:Work></rdf:RDF></metadata><defs
     id="defs13" /><sodipodi:namedview
     pagecolor="#ffffff"
     bordercolor="#666666"
     borderopacity="1"
     objecttolerance="10"
     gridtolerance="10"
     guidetolerance="10"
     inkscape:pageopacity="0"
     inkscape:pageshadow="2"
     inkscape:window-width="1920"
     inkscape:window-height="1025"
     id="namedview11"
     showgrid="false"
     inkscape:zoom="3.6875"
     inkscape:cx="32"
     inkscape:cy="32"
     inkscape:window-x="0"
     inkscape:window-y="30"
     inkscape:window-maximized="1"
     inkscape:current-layer="Layer_1" /><path
     style="font-size:medium;font-style:normal;font-variant:normal;font-weight:normal;font-stretch:normal;text-indent:0;text-align:start;text-decoration:none;line-height:normal;letter-spacing:normal;word-spacing:normal;text-transform:none;direction:ltr;block-progression:tb;writing-mode:lr-tb;text-anchor:start;baseline-shift:baseline;color:#000000;fill:#000000;fill-opacity:1;stroke:none;stroke-width:2;marker:none;visibility:visible;display:inline;overflow:visible;enable-background:accumulate;font-family:Sans;-inkscape-font-specification:Sans"
     d="M 32 0 C 23.808574 1.3836268e-06 15.619052 3.1299166 9.375 9.375 C -3.1141509 21.863119 -3.1141983 42.137865 9.375 54.625 C 21.863123 67.115186 42.136877 67.115186 54.625 54.625 C 67.114151 42.136881 67.114198 21.862135 54.625 9.375 C 48.380456 3.1299403 40.191426 -1.3836268e-06 32 0 z M 32 2 C 39.675324 2.0000014 47.356294 4.9183097 53.21875 10.78125 C 64.943552 22.504115 64.943599 41.494869 53.21875 53.21875 C 41.494873 64.944564 22.505127 64.944564 10.78125 53.21875 C -0.94355171 41.495885 -0.94359906 22.505131 10.78125 10.78125 C 16.643198 4.9183334 24.324676 1.9999986 32 2 z M 16.625 20.21875 L 15 21 L 15 43 L 16.625 43.78125 L 30.625 32.78125 L 30.625 31.21875 L 16.625 20.21875 z M 36.625 20.21875 L 35 21 L 35 43 L 36.625 43.78125 L 50.625 32.78125 L 50.625 31.21875 L 36.625 20.21875 z M 17 23.0625 L 28.375 32 L 17 40.9375 L 17 23.0625 z M 37 23.0625 L 48.375 32 L 37 40.9375 L 37 23.0625 z "
     id="polygon5" /></svg>