<?xml version="1.0" encoding="UTF-8" standalone="no"?>
<!-- Created with Inkscape (http://www.inkscape.org/) -->

<svg
   xmlns:dc="http://purl.org/dc/elements/1.1/"
   xmlns:cc="http://creativecommons.org/ns#"
   xmlns:rdf="http://www.w3.org/1999/02/22-rdf-syntax-ns#"
   xmlns:svg="http://www.w3.org/2000/svg"
   xmlns="http://www.w3.org/2000/svg"
   version="1.1"
   width="64"
   height="64"
   viewBox="0 0 64 64"
   id="Layer_1"
   xml:space="preserve"><metadata
     id="metadata15"><rdf:RDF><cc:Work
         rdf:about=""><dc:format>image/svg+xml</dc:format><dc:type
           rdf:resource="http://purl.org/dc/dcmitype/StillImage" /><dc:title></dc:title></cc:Work></rdf:RDF></metadata><defs
     id="defs13" /><path
     d="m 11,0 0,1 0,62 0,1 1,0 40,0 1,0 0,-1 0,-62 0,-1 -1,0 -40,0 -1,0 z m 2,2 38,0 0,60 -38,0 0,-60 z m 19,7 c -3.854149,0 -7,3.145851 -7,7 0,3.854149 3.145851,7 7,7 3.854149,0 7,-3.145851 7,-7 0,-3.854149 -3.145851,-7 -7,-7 z m 0,2 c 2.773268,0 5,2.226732 5,5 0,2.773268 -2.226732,5 -5,5 -2.773268,0 -5,-2.226732 -5,-5 0,-2.773268 2.226732,-5 5,-5 z m 0,18 c -7.167857,0 -13,5.832143 -13,13 0,7.167857 5.832143,13 13,13 7.167857,0 13,-5.832143 13,-13 0,-7.167857 -5.832143,-13 -13,-13 z m 0,2 c 6.086977,0 11,4.913023 11,11 0,6.086977 -4.913023,11 -11,11 -6.086977,0 -11,-4.913023 -11,-11 0,-6.086977 4.913023,-11 11,-11 z m 0,7.5 c -1.921152,0 -3.5,1.578848 -3.5,3.5 0,1.921152 1.578848,3.5 3.5,3.5 1.921152,0 3.5,-1.578848 3.5,-3.5 0,-1.921152 -1.578848,-3.5 -3.5,-3.5 z m 0,2 c 0.840272,0 1.5,0.659728 1.5,1.5 0,0.840272 -0.659728,1.5 -1.5,1.5 -0.840272,0 -1.5,-0.659728 -1.5,-1.5 0,-0.840272 0.659728,-1.5 1.5,-1.5 z"
     id="rect3"
     style="font-size:medium;font-style:normal;font-variant:normal;font-weight:normal;font-stretch:normal;text-indent:0;text-align:start;text-decoration:none;line-height:normal;letter-spacing:normal;word-spacing:normal;text-transform:none;direction:ltr;block-progression:tb;writing-mode:lr-tb;text-anchor:start;baseline-shift:baseline;color:#000000;fill:#000000;fill-opacity:1;stroke:none;stroke-width:2;marker:none;visibility:visible;display:inline;overflow:visible;enable-background:accumulate;font-family:Sans;-inkscape-font-specification:Sans" /></svg>