<?xml version="1.0" encoding="UTF-8" standalone="no"?>
<!-- Created with Inkscape (http://www.inkscape.org/) -->

<svg
   xmlns:dc="http://purl.org/dc/elements/1.1/"
   xmlns:cc="http://creativecommons.org/ns#"
   xmlns:rdf="http://www.w3.org/1999/02/22-rdf-syntax-ns#"
   xmlns:svg="http://www.w3.org/2000/svg"
   xmlns="http://www.w3.org/2000/svg"
   version="1.1"
   width="64"
   height="64"
   viewBox="0 0 64 64"
   id="Layer_1"
   xml:space="preserve"><metadata
     id="metadata15"><rdf:RDF><cc:Work
         rdf:about=""><dc:format>image/svg+xml</dc:format><dc:type
           rdf:resource="http://purl.org/dc/dcmitype/StillImage" /><dc:title></dc:title></cc:Work></rdf:RDF></metadata><defs
     id="defs13" /><path
     d="M 35,-0.40625 33.28125,1.28125 15.5625,19 4,19 3,19 3,20 3,32 3,44 3,45 4,45 15.5625,45 33.28125,62.71875 35,64.40625 35,62 35,32 35,2 35,-0.40625 z M 33,4.4375 33,32 33,59.5625 16.71875,43.28125 16.40625,43 16,43 5,43 5,32 5,21 l 11,0 0.40625,0 0.3125,-0.28125 L 33,4.4375 z m 9.71875,17.84375 -1.4375,1.4375 L 49.5625,32 l -8.28125,8.28125 1.4375,1.4375 L 51,33.4375 l 8.28125,8.28125 1.4375,-1.4375 L 52.4375,32 60.71875,23.71875 59.28125,22.28125 51,30.5625 42.71875,22.28125 z"
     id="polygon5"
     style="font-size:medium;font-style:normal;font-variant:normal;font-weight:normal;font-stretch:normal;text-indent:0;text-align:start;text-decoration:none;line-height:normal;letter-spacing:normal;word-spacing:normal;text-transform:none;direction:ltr;block-progression:tb;writing-mode:lr-tb;text-anchor:start;baseline-shift:baseline;color:#000000;fill:#000000;fill-opacity:1;stroke:none;stroke-width:2;marker:none;visibility:visible;display:inline;overflow:visible;enable-background:accumulate;font-family:Sans;-inkscape-font-specification:Sans" /></svg>