<?xml version="1.0" encoding="UTF-8" standalone="no"?>
<!-- Created with Inkscape (http://www.inkscape.org/) -->

<svg
   xmlns:dc="http://purl.org/dc/elements/1.1/"
   xmlns:cc="http://creativecommons.org/ns#"
   xmlns:rdf="http://www.w3.org/1999/02/22-rdf-syntax-ns#"
   xmlns:svg="http://www.w3.org/2000/svg"
   xmlns="http://www.w3.org/2000/svg"
   version="1.1"
   width="64"
   height="64"
   viewBox="0 0 64 64"
   id="Layer_1"
   xml:space="preserve"><metadata
     id="metadata15"><rdf:RDF><cc:Work
         rdf:about=""><dc:format>image/svg+xml</dc:format><dc:type
           rdf:resource="http://purl.org/dc/dcmitype/StillImage" /><dc:title></dc:title></cc:Work></rdf:RDF></metadata><defs
     id="defs13" /><path
     d="M 32,0 C 23.808693,2.7674251e-6 15.61856,3.129893 9.375,9.375 c -12.4891509,12.488119 -12.4891983,32.762865 0,45.25 12.487139,12.490234 32.761877,12.490186 45.25,0 12.489151,-12.488119 12.489198,-32.762865 0,-45.25 C 48.380456,3.1299403 40.191307,-2.7674251e-6 32,0 z m 0,2 c 7.675193,2.8e-6 15.356294,2.9183097 21.21875,8.78125 11.724802,11.722865 11.724849,30.713619 0,42.4375 -11.723877,11.725814 -30.714639,11.725766 -42.4375,0 -11.72480171,-11.722865 -11.72484906,-30.713619 0,-42.4375 C 16.64269,4.918357 24.324807,1.9999972 32,2 z m -8,21 0,18 2,0 0,-18 -2,0 z m 13,0 0,18 2,0 0,-18 -2,0 z"
     id="line5"
     style="font-size:medium;font-style:normal;font-variant:normal;font-weight:normal;font-stretch:normal;text-indent:0;text-align:start;text-decoration:none;line-height:normal;letter-spacing:normal;word-spacing:normal;text-transform:none;direction:ltr;block-progression:tb;writing-mode:lr-tb;text-anchor:start;baseline-shift:baseline;color:#000000;fill:#000000;fill-opacity:1;stroke:none;stroke-width:2;marker:none;visibility:visible;display:inline;overflow:visible;enable-background:accumulate;font-family:Sans;-inkscape-font-specification:Sans" /></svg>