<?xml version="1.0" encoding="UTF-8" standalone="no"?>
<!-- Created with Inkscape (http://www.inkscape.org/) -->

<svg
   xmlns:dc="http://purl.org/dc/elements/1.1/"
   xmlns:cc="http://creativecommons.org/ns#"
   xmlns:rdf="http://www.w3.org/1999/02/22-rdf-syntax-ns#"
   xmlns:svg="http://www.w3.org/2000/svg"
   xmlns="http://www.w3.org/2000/svg"
   version="1.1"
   width="64"
   height="64"
   viewBox="0 0 64 64"
   id="Layer_1"
   xml:space="preserve"><metadata
     id="metadata19"><rdf:RDF><cc:Work
         rdf:about=""><dc:format>image/svg+xml</dc:format><dc:type
           rdf:resource="http://purl.org/dc/dcmitype/StillImage" /><dc:title></dc:title></cc:Work></rdf:RDF></metadata><defs
     id="defs17" /><path
     d="m 64,-0.34375 -1.28125,0.375 -20,6 L 42,6.25 42,7 42,49.375 C 40.348302,47.323877 37.829372,46 35,46 c -4.958718,0 -9,4.041282 -9,9 0,4.958718 4.041282,9 9,9 4.958718,0 9,-4.041282 9,-9 L 44,21.75 63.28125,15.96875 64,15.75 64,15 64,1 64,-0.34375 z M 62,2.34375 62,14.25 44,19.65625 44,7.75 62,2.34375 z M 4,15 l 0,2 34,0 0,-2 -34,0 z m 0,10 0,2 34,0 0,-2 -34,0 z m 0,10 0,2 34,0 0,-2 -34,0 z m 31,13 c 3.877838,0 7,3.122162 7,7 0,3.877838 -3.122162,7 -7,7 -3.877838,0 -7,-3.122162 -7,-7 0,-3.877838 3.122162,-7 7,-7 z"
     id="circle5"
     style="font-size:medium;font-style:normal;font-variant:normal;font-weight:normal;font-stretch:normal;text-indent:0;text-align:start;text-decoration:none;line-height:normal;letter-spacing:normal;word-spacing:normal;text-transform:none;direction:ltr;block-progression:tb;writing-mode:lr-tb;text-anchor:start;baseline-shift:baseline;color:#000000;fill:#000000;fill-opacity:1;stroke:none;stroke-width:2;marker:none;visibility:visible;display:inline;overflow:visible;enable-background:accumulate;font-family:Sans;-inkscape-font-specification:Sans" /></svg>