<?xml version="1.0" encoding="UTF-8" standalone="no"?>
<!-- Created with Inkscape (http://www.inkscape.org/) -->

<svg
   xmlns:dc="http://purl.org/dc/elements/1.1/"
   xmlns:cc="http://creativecommons.org/ns#"
   xmlns:rdf="http://www.w3.org/1999/02/22-rdf-syntax-ns#"
   xmlns:svg="http://www.w3.org/2000/svg"
   xmlns="http://www.w3.org/2000/svg"
   version="1.1"
   width="64"
   height="64"
   viewBox="0 0 64 64"
   id="Layer_1"
   xml:space="preserve"><metadata
     id="metadata31"><rdf:RDF><cc:Work
         rdf:about=""><dc:format>image/svg+xml</dc:format><dc:type
           rdf:resource="http://purl.org/dc/dcmitype/StillImage" /><dc:title></dc:title></cc:Work></rdf:RDF></metadata><defs
     id="defs29" /><path
     d="m 4,7 0,1 0,12 -3,0 -1,0 0,1 0,35 0,1 1,0 62,0 1,0 0,-1 0,-35 0,-1 -1,0 -3,0 L 60,8 60,7 59,7 5,7 4,7 z m 2,2 52,0 0,2 -52,0 0,-2 z m 0,4 52,0 0,7 -52,0 0,-7 z m -4,9 60,0 0,33 -60,0 0,-33 z m 31,4 0,1 0,4 0,1 1,0 5,0 1,0 0,-1 0,-4 0,-1 -1,0 -5,0 -1,0 z m 9,0 0,1 0,4 0,1 1,0 5,0 1,0 0,-1 0,-4 0,-1 -1,0 -5,0 -1,0 z m 9,0 0,1 0,4 0,1 1,0 5,0 1,0 0,-1 0,-4 0,-1 -1,0 -5,0 -1,0 z M 17.5,27 C 11.16057,27 6,32.16057 6,38.5 6,44.83943 11.16057,50 17.5,50 23.83943,50 29,44.83943 29,38.5 29,32.16057 23.83943,27 17.5,27 z m 17.5,1 3,0 0,2 -3,0 0,-2 z m 9,0 3,0 0,2 -3,0 0,-2 z m 9,0 3,0 0,2 -3,0 0,-2 z m -35.5,1 c 0.865288,0 1.704156,0.12843 2.5,0.34375 L 20,34 15,34 15,29.34375 C 15.795844,29.12843 16.634712,29 17.5,29 z m -4.53125,1.15625 c 0.0081,-0.0044 0.02314,0.0044 0.03125,0 L 13,34 9.15625,34 c 0.875816,-1.626453 2.18891,-2.96335 3.8125,-3.84375 z m 9.03125,0 C 23.634563,31.036433 24.963567,32.365437 25.84375,34 L 22,34 22,30.15625 z M 33,34 l 0,1 0,15 0,1 1,0 23,0 1,0 0,-1 0,-15 0,-1 -1,0 -23,0 -1,0 z M 8.34375,36 13,36 13,41 8.34375,41 C 8.1284302,40.204156 8,39.365288 8,38.5 8,37.634712 8.1284302,36.795844 8.34375,36 z M 15,36 l 5,0 0,5 -5,0 0,-5 z m 7,0 4.65625,0 C 26.87157,36.795844 27,37.634712 27,38.5 27,39.365288 26.87157,40.204156 26.65625,41 L 22,41 22,36 z m 13,0 21,0 0,13 -21,0 0,-13 z M 9.15625,43 13,43 13,46.84375 C 11.365437,45.963567 10.036433,44.634563 9.15625,43 z M 15,43 l 5,0 0,4.65625 C 19.204156,47.87157 18.365288,48 17.5,48 16.634712,48 15.795844,47.87157 15,47.65625 L 15,43 z m 7,0 3.84375,0 C 24.963567,44.634563 23.634563,45.963567 22,46.84375 L 22,43 z"
     id="rect3"
     style="font-size:medium;font-style:normal;font-variant:normal;font-weight:normal;font-stretch:normal;text-indent:0;text-align:start;text-decoration:none;line-height:normal;letter-spacing:normal;word-spacing:normal;text-transform:none;direction:ltr;block-progression:tb;writing-mode:lr-tb;text-anchor:start;baseline-shift:baseline;color:#000000;fill:#000000;fill-opacity:1;stroke:none;stroke-width:2;marker:none;visibility:visible;display:inline;overflow:visible;enable-background:accumulate;font-family:Sans;-inkscape-font-specification:Sans" /></svg>