<?xml version="1.0" encoding="UTF-8" standalone="no"?>
<!-- Created with Inkscape (http://www.inkscape.org/) -->

<svg
   xmlns:dc="http://purl.org/dc/elements/1.1/"
   xmlns:cc="http://creativecommons.org/ns#"
   xmlns:rdf="http://www.w3.org/1999/02/22-rdf-syntax-ns#"
   xmlns:svg="http://www.w3.org/2000/svg"
   xmlns="http://www.w3.org/2000/svg"
   version="1.1"
   width="64"
   height="64"
   viewBox="0 0 64 64"
   id="Layer_1"
   xml:space="preserve"><metadata
     id="metadata19"><rdf:RDF><cc:Work
         rdf:about=""><dc:format>image/svg+xml</dc:format><dc:type
           rdf:resource="http://purl.org/dc/dcmitype/StillImage" /><dc:title></dc:title></cc:Work></rdf:RDF></metadata><defs
     id="defs17" /><path
     d="m 0,10 0,1 0,42 0,1 1,0 62,0 1,0 0,-1 0,-42 0,-1 -1,0 -62,0 -1,0 z m 2,2 60,0 0,40 -4.25,0 L 54.96875,42.71875 54.75,42 54,42 32,42 10,42 9.25,42 9.03125,42.71875 6.25,52 2,52 2,12 z m 2,2 0,1 0,4 0,1 1,0 55,0 1,0 0,-1 0,-4 0,-1 -1,0 -55,0 -1,0 z m 2,2 53,0 0,2 -53,0 0,-2 z m 10,8 c -3.854149,0 -7,3.145851 -7,7 0,3.854149 3.145851,7 7,7 3.854149,0 7,-3.145851 7,-7 0,-3.854149 -3.145851,-7 -7,-7 z m 32,0 c -3.854149,0 -7,3.145851 -7,7 0,3.854149 3.145851,7 7,7 3.854149,0 7,-3.145851 7,-7 0,-3.854149 -3.145851,-7 -7,-7 z m -32,2 c 2.773268,0 5,2.226732 5,5 0,2.773268 -2.226732,5 -5,5 -2.773268,0 -5,-2.226732 -5,-5 0,-2.773268 2.226732,-5 5,-5 z m 32,0 c 2.773268,0 5,2.226732 5,5 0,2.773268 -2.226732,5 -5,5 -2.773268,0 -5,-2.226732 -5,-5 0,-2.773268 2.226732,-5 5,-5 z m -23,1 0,1 0,6 0,1 1,0 12,0 1,0 0,-1 0,-6 0,-1 -1,0 -12,0 -1,0 z m 2,2 10,0 0,4 -10,0 0,-4 z M 10.75,44 32,44 53.25,44 55.65625,52 8.34375,52 10.75,44 z"
     id="rect3"
     style="font-size:medium;font-style:normal;font-variant:normal;font-weight:normal;font-stretch:normal;text-indent:0;text-align:start;text-decoration:none;line-height:normal;letter-spacing:normal;word-spacing:normal;text-transform:none;direction:ltr;block-progression:tb;writing-mode:lr-tb;text-anchor:start;baseline-shift:baseline;color:#000000;fill:#000000;fill-opacity:1;stroke:none;stroke-width:2;marker:none;visibility:visible;display:inline;overflow:visible;enable-background:accumulate;font-family:Sans;-inkscape-font-specification:Sans" /></svg>