<?xml version="1.0" encoding="UTF-8" standalone="no"?>
<!-- Created with Inkscape (http://www.inkscape.org/) -->

<svg
   xmlns:dc="http://purl.org/dc/elements/1.1/"
   xmlns:cc="http://creativecommons.org/ns#"
   xmlns:rdf="http://www.w3.org/1999/02/22-rdf-syntax-ns#"
   xmlns:svg="http://www.w3.org/2000/svg"
   xmlns="http://www.w3.org/2000/svg"
   version="1.1"
   width="64"
   height="64"
   viewBox="0 0 64 64"
   id="Layer_1"
   xml:space="preserve"><metadata
     id="metadata15"><rdf:RDF><cc:Work
         rdf:about=""><dc:format>image/svg+xml</dc:format><dc:type
           rdf:resource="http://purl.org/dc/dcmitype/StillImage" /><dc:title></dc:title></cc:Work></rdf:RDF></metadata><defs
     id="defs13" /><path
     d="M 34,-0.40625 32.28125,1.28125 14.5625,19 3,19 2,19 2,20 2,32 2,44 2,45 3,45 14.5625,45 32.28125,62.71875 34,64.40625 34,62 34,32 34,2 34,-0.40625 z M 32,4.4375 32,32 32,59.5625 15.71875,43.28125 15.40625,43 15,43 4,43 4,32 4,21 l 11,0 0.40625,0 0.3125,-0.28125 L 32,4.4375 z M 41,11 l 0,2 c 10.505593,0 19,8.494407 19,19 0,10.505593 -8.494407,19 -19,19 l 0,2 C 52.586407,53 62,43.586407 62,32 62,20.413593 52.586407,11 41,11 z m 0,10 0,2 c 4.981375,0 9,4.018625 9,9 0,4.981375 -4.018625,9 -9,9 l 0,2 C 47.062625,43 52,38.062625 52,32 52,25.937375 47.062625,21 41,21 z"
     id="polygon5"
     style="font-size:medium;font-style:normal;font-variant:normal;font-weight:normal;font-stretch:normal;text-indent:0;text-align:start;text-decoration:none;line-height:normal;letter-spacing:normal;word-spacing:normal;text-transform:none;direction:ltr;block-progression:tb;writing-mode:lr-tb;text-anchor:start;baseline-shift:baseline;color:#000000;fill:#000000;fill-opacity:1;stroke:none;stroke-width:2;marker:none;visibility:visible;display:inline;overflow:visible;enable-background:accumulate;font-family:Sans;-inkscape-font-specification:Sans" /></svg>