<?xml version="1.0" encoding="UTF-8" standalone="no"?>
<!-- Created with Inkscape (http://www.inkscape.org/) -->

<svg
   xmlns:dc="http://purl.org/dc/elements/1.1/"
   xmlns:cc="http://creativecommons.org/ns#"
   xmlns:rdf="http://www.w3.org/1999/02/22-rdf-syntax-ns#"
   xmlns:svg="http://www.w3.org/2000/svg"
   xmlns="http://www.w3.org/2000/svg"
   version="1.1"
   width="64"
   height="64"
   viewBox="0 0 64 64"
   id="Layer_1"
   xml:space="preserve"><metadata
     id="metadata13"><rdf:RDF><cc:Work
         rdf:about=""><dc:format>image/svg+xml</dc:format><dc:type
           rdf:resource="http://purl.org/dc/dcmitype/StillImage" /><dc:title></dc:title></cc:Work></rdf:RDF></metadata><defs
     id="defs11" /><path
     d="M 39,-0.40625 37.28125,1.28125 19.5625,19 8,19 7,19 7,20 7,32 7,44 7,45 8,45 19.5625,45 37.28125,62.71875 39,64.40625 39,62 39,32 39,2 39,-0.40625 z M 37,4.4375 37,32 37,59.5625 20.71875,43.28125 20.40625,43 20,43 9,43 9,32 9,21 l 11,0 0.40625,0 0.3125,-0.28125 L 37,4.4375 z M 46,21 l 0,2 c 4.981375,0 9,4.018625 9,9 0,4.981375 -4.018625,9 -9,9 l 0,2 C 52.062625,43 57,38.062625 57,32 57,25.937375 52.062625,21 46,21 z"
     id="polygon5"
     style="font-size:medium;font-style:normal;font-variant:normal;font-weight:normal;font-stretch:normal;text-indent:0;text-align:start;text-decoration:none;line-height:normal;letter-spacing:normal;word-spacing:normal;text-transform:none;direction:ltr;block-progression:tb;writing-mode:lr-tb;text-anchor:start;baseline-shift:baseline;color:#000000;fill:#000000;fill-opacity:1;stroke:none;stroke-width:2;marker:none;visibility:visible;display:inline;overflow:visible;enable-background:accumulate;font-family:Sans;-inkscape-font-specification:Sans" /></svg>